<?xml version="1.0" encoding="UTF-8"?>
<!DOCTYPE svg PUBLIC "-//W3C//DTD SVG 1.1//EN" "http://www.w3.org/Graphics/SVG/1.1/DTD/svg11.dtd">
<svg xmlns="http://www.w3.org/2000/svg" version="1.1" width="100px" height="100px" style="shape-rendering:geometricPrecision; text-rendering:geometricPrecision; image-rendering:optimizeQuality; fill-rule:evenodd; clip-rule:evenodd" xmlns:xlink="http://www.w3.org/1999/xlink">
<g><path style="opacity:0.119" fill="#f295fb" d="M 4882.5,7448.5 C 4882.5,6499.17 4882.5,5549.83 4882.5,4600.5C 4882.5,3485.83 4882.5,2371.17 4882.5,1256.5C 5415.83,1256.5 5949.17,1256.5 6482.5,1256.5C 6479.72,1862.84 6476.89,2469.18 6474,3075.5C 6679.42,2953.88 6896.25,2857.38 7124.5,2786C 7325.77,2728.01 7531.11,2703.34 7740.5,2712C 7897.74,2714.84 8053.74,2730.17 8208.5,2758C 8414.21,2794.46 8608.87,2862.12 8792.5,2961C 9017.34,3083.49 9202.17,3250.65 9347,3462.5C 9452.51,3619.53 9533.51,3788.87 9590,3970.5C 9645.1,4150.92 9683.1,4334.92 9704,4522.5C 9720.26,4665.04 9728.93,4808.04 9730,4951.5C 9730.5,5783.83 9730.67,6616.17 9730.5,7448.5C 9191.17,7448.5 8651.83,7448.5 8112.5,7448.5C 8112.67,6634.83 8112.5,5821.17 8112,5007.5C 8112.39,4887.94 8102.39,4769.27 8082,4651.5C 8066.64,4568.74 8041.64,4489.08 8007,4412.5C 7966.06,4321.57 7905.89,4246.07 7826.5,4186C 7769.84,4145.18 7707.51,4115.84 7639.5,4098C 7513.17,4066.47 7385.17,4055.14 7255.5,4064C 7066.79,4080.46 6905.62,4154.96 6772,4287.5C 6683.71,4378.67 6617.04,4484 6572,4603.5C 6521.05,4741.91 6494.39,4884.91 6492,5032.5C 6491.5,5837.83 6491.33,6643.17 6491.5,7448.5C 5955.17,7448.5 5418.83,7448.5 4882.5,7448.5 Z"/></g>
<g><path style="opacity:1" fill="#9c8bf1" d="M 4882.5,4600.5 C 4882.5,5549.83 4882.5,6499.17 4882.5,7448.5C 4770.6,7448.83 4658.76,7448.5 4547,7447.5C 4302.67,6729.17 4058.33,6010.83 3814,5292.5C 3575.8,6010.93 3337.3,6729.27 3098.5,7447.5C 2618.93,7448.83 2139.43,7448.83 1660,7447.5C 1134.16,5919.98 608.328,4392.48 82.5,2865C 660.167,2864.5 1237.83,2864.33 1815.5,2864.5C 2057.89,3687.51 2300.39,4510.51 2543,5333.5C 2543.78,5337.43 2546.28,5339.1 2550.5,5338.5C 2552.76,5338.47 2554.93,5338.13 2557,5337.5C 2558,5334.17 2559,5330.83 2560,5327.5C 2788.53,4511.41 3017.36,3695.41 3246.5,2879.5C 3630.83,2878.5 4015.17,2878.17 4399.5,2878.5C 4560.13,3452.71 4721.13,4026.71 4882.5,4600.5 Z"/></g>
</svg>
